<mxfile host="app.diagrams.net" modified="2024-02-05T15:49:49.141Z" agent="Mozilla/5.0 (Windows NT 10.0; Win64; x64) AppleWebKit/537.36 (KHTML, like Gecko) Chrome/121.0.0.0 Safari/537.36" etag="g87u985C_c51eAwmH6Zm" version="23.1.1" type="github">
  <diagram name="Page-1" id="9tfz9Usf4YmlDapLJdfl">
    <mxGraphModel dx="1050" dy="574" grid="1" gridSize="10" guides="1" tooltips="1" connect="1" arrows="1" fold="1" page="1" pageScale="1" pageWidth="827" pageHeight="1169" math="0" shadow="0">
      <root>
        <mxCell id="0" />
        <mxCell id="1" parent="0" />
        <mxCell id="XgxB_xvRrrXYhROmJ8Rw-1" value="Bases de données&lt;br&gt;relationnelles" style="rounded=0;whiteSpace=wrap;html=1;" vertex="1" parent="1">
          <mxGeometry x="350" y="270" width="120" height="60" as="geometry" />
        </mxCell>
        <mxCell id="XgxB_xvRrrXYhROmJ8Rw-2" value="Bases de données&lt;br&gt;NOSQL" style="rounded=0;whiteSpace=wrap;html=1;" vertex="1" parent="1">
          <mxGeometry x="470" y="270" width="120" height="60" as="geometry" />
        </mxCell>
        <mxCell id="XgxB_xvRrrXYhROmJ8Rw-6" value="MYSQL&lt;br&gt;MAriaDB&lt;br&gt;PostegréSQL&lt;br&gt;Oracle&lt;br&gt;SQLserver" style="rounded=0;whiteSpace=wrap;html=1;" vertex="1" parent="1">
          <mxGeometry x="350" y="330" width="120" height="160" as="geometry" />
        </mxCell>
        <mxCell id="XgxB_xvRrrXYhROmJ8Rw-7" value="MongoDB&lt;br&gt;Redis&lt;br&gt;ElastisSearch&lt;br&gt;Cassandra&lt;br&gt;AmazoneDynamoDB&lt;br&gt;" style="rounded=0;whiteSpace=wrap;html=1;" vertex="1" parent="1">
          <mxGeometry x="470" y="330" width="120" height="160" as="geometry" />
        </mxCell>
      </root>
    </mxGraphModel>
  </diagram>
</mxfile>
